Coordinates
version=1
nRows=11
nColumns=36
inDegrees=yes

Units are S.I. units (second, meters, Newtons, ...)
If the header above contains a line with 'inDegrees', this indicates whether rotational values are in degrees (yes) or radians (no).

endheader
time	pelvis_tilt	pelvis_list	pelvis_rotation	pelvis_tx	pelvis_ty	pelvis_tz	hip_flexion_r	hip_adduction_r	hip_rotation_r	knee_angle_r	knee_angle_r_beta	ankle_angle_r	subtalar_angle_r	mtp_angle_r	hip_flexion_l	hip_adduction_l	hip_rotation_l	knee_angle_l	knee_angle_l_beta	ankle_angle_l	subtalar_angle_l	mtp_angle_l	lumbar_extension	lumbar_bending	lumbar_rotation	arm_flex_r	arm_add_r	arm_rot_r	elbow_flex_r	pro_sup_r	arm_flex_l	arm_add_l	arm_rot_l	elbow_flex_l	pro_sup_l
      4.30000000	     -1.55225276	     -0.93921563	     -3.51441326	      1.92891984	      1.02868466	      0.23441106	     -5.34768401	     -0.99008366	     -0.00715392	      0.22883285	      0.00399389	      9.41240793	     -9.18040608	     -7.49999987	     -4.90855867	     -6.46399382	     -2.85297535	      0.20861817	      0.00364107	      7.20960187	     -3.96547423	     -7.49999987	     -1.49908264	     -0.09278956	      0.80607831	    -11.06850927	    -12.05137426	     -1.67710393	      9.87310863	     72.63272984	     -9.12548326	    -12.80870939	     -8.86861864	      9.70690123	     75.04334556
      4.31666670	     -1.42201914	     -0.85364074	     -3.39016515	      1.92895178	      1.02393396	      0.23497659	     -5.62413611	     -1.09572704	     -0.14173240	      0.23795022	      0.00415301	      9.92839459	     -8.83849375	     -7.49999987	     -5.07378434	     -6.29283257	     -2.74793260	      0.20978495	      0.00366144	      7.16331064	     -4.10591058	     -7.49999987	     -1.03485309	     -0.12982640	      0.71150598	    -11.07718479	    -12.10839266	     -1.65944124	      9.97854579	     70.38947839	     -9.10909244	    -12.71013535	     -9.35731332	      9.60043216	     72.36579379
      4.33333330	     -1.26420086	     -0.79823016	     -3.39190904	      1.92451256	      1.01786504	      0.23681575	     -5.86342402	     -1.16704432	     -0.11066945	      0.25015405	      0.00436601	     10.32223389	     -8.64710503	     -7.49999987	     -5.24498415	     -6.15996340	     -2.77869632	      0.21333317	      0.00372337	      7.12582635	     -4.27006933	     -7.49999987	     -0.79340219	     -0.13469121	      0.64882736	    -10.73909296	    -12.32212449	      0.39644647	     10.02014725	     69.22877283	     -8.81644947	    -12.82500752	     -8.06116191	      9.56369323	     70.96244416
      4.35000000	     -1.12168590	     -0.72726349	     -3.42366897	      1.92445766	      1.01454612	      0.23652577	     -6.06491204	     -1.26559600	     -0.09765871	      0.26447974	      0.00461604	     10.61576277	     -8.53012405	     -7.49999987	     -5.39880777	     -6.01463152	     -2.83049048	      0.21767766	      0.00379919	      7.07740145	     -4.42538963	     -7.49999987	     -0.59916129	     -0.16424582	      0.64746110	    -10.40806748	    -12.42805287	      0.73089098	     10.30980420	     68.22649753	     -8.51911494	    -12.86601116	     -8.00612798	      9.72328325	     69.78411719
      4.36666670	     -1.02960328	     -0.67451000	     -3.52178668	      1.92686991	      1.00354269	      0.23416017	     -6.19691032	     -1.36889277	     -0.15355540	      0.27947624	      0.00487778	     10.83871101	     -8.31810969	     -7.49999987	     -5.53981650	     -5.87633162	     -2.92463048	      0.22333435	      0.00389792	      6.98014175	     -4.71459692	     -7.49999987	     -0.35097168	     -0.16405544	      0.72476764	    -10.20943356	    -12.69386367	      1.89470762	     10.68672996	     67.55348560	     -8.29833593	    -12.97559766	     -7.43441767	      9.93025962	     68.88166618
      4.38333330	     -0.82509818	     -0.67124765	     -3.59533901	      1.92707270	      1.00644042	      0.23462676	     -6.45340035	     -1.42572974	      0.22825445	      0.29006115	      0.00506252	     10.67635539	     -9.00331180	     -7.49999987	     -5.79440477	     -5.80827574	     -3.08512651	      0.22313738	      0.00389448	      6.78802227	     -4.95418654	     -7.49999987	     -0.41390038	     -0.12420923	      0.75282902	    -10.16986121	    -12.90040961	      2.14419777	     11.65885943	     66.86752272	     -8.20318255	    -12.86100403	     -7.26655669	     11.02708647	     68.03641377
      4.40000000	     -0.69222619	     -0.62299814	     -3.56331117	      1.92667130	      1.00673865	      0.23376163	     -6.64949497	     -1.53152948	     -0.07574773	      0.30527275	      0.00532801	     11.23454116	     -8.11378600	     -7.49999987	     -5.95062551	     -5.71699309	     -3.16035890	      0.23083458	      0.00402882	      6.97305916	     -4.79359345	     -7.49999987	     -0.26676159	     -0.15721049	      0.71394416	     -9.45206932	    -13.06840553	      4.81941770	     11.53440915	     67.60436370	     -7.44238928	    -12.79084927	     -4.83512951	     10.64514775	     68.49490833
      4.41666670	     -0.48929742	     -0.59111392	     -3.55719570	      1.92671661	      1.00467431	      0.23333703	     -6.91056711	     -1.62087587	     -0.08290213	      0.31228996	      0.00545049	     11.36375984	     -8.08044298	     -7.49999987	     -6.18806396	     -5.63383315	     -3.16391452	      0.23241034	      0.00405633	      6.93307075	     -5.03426301	     -7.49999987	     -0.31679369	     -0.18745503	      0.65168370	     -8.84730910	    -13.25587758	      7.40386481	     12.20560390	     67.27702488	     -7.02613918	    -12.74176307	     -2.04394178	     11.00264031	     67.80351178
      4.43333330	     -0.38838333	     -0.56720401	     -3.64604063	      1.92615119	      1.00314759	      0.23309139	     -7.03351801	     -1.70627126	      0.04330436	      0.32300062	      0.00563742	     11.38725323	     -8.14826442	     -7.49999987	     -6.32811140	     -5.55851390	     -3.26640148	      0.23526872	      0.00410621	      6.90408029	     -5.19484203	     -7.49999987	     -0.21050848	     -0.17677788	      0.69259631	     -8.29458826	    -13.30792050	      8.51708653	     12.77564506	     66.80487118	     -6.56031462	    -12.55133268	     -0.79121759	     11.26573987	     66.97748891
      4.45000000	     -0.15779135	     -0.49737186	     -3.59102728	      1.92328401	      1.00342368	      0.23000497	     -7.28525312	     -1.84593182	     -0.28623310	      0.32868444	      0.00573663	     11.72992487	     -7.49848153	     -7.49999987	     -6.54696759	     -5.43374924	     -3.11043120	      0.23823070	      0.00415791	      6.80245295	     -5.54330706	     -7.49999987	     -0.46518829	     -0.22751782	      0.50134606	     -7.53895613	    -13.32535508	      8.80152237	     13.66443070	     66.21662517	     -5.91241395	    -12.20006940	     -0.41434612	     12.09621725	     66.30956050
      4.46666670	     -0.09148653	     -0.45576439	     -3.69232345	      1.92285922	      1.00435030	      0.23035330	     -7.33410175	     -1.95179680	      0.01307554	      0.33993054	      0.00593291	     11.59623884	     -7.87629243	     -7.49999987	     -6.62475398	     -5.34900517	     -3.49938841	      0.24057486	      0.00419882	      6.88527718	     -5.18785420	     -7.49999987	     -0.43771741	     -0.20269487	      0.76084619	     -6.25491972	    -13.52723352	     12.75994984	     13.95313864	     67.36512402	     -5.17300437	    -12.15971881	      4.06091328	     12.51163133	     66.79665326
